<svg width="152" height="96" viewBox="0 0 152 96" fill="none" xmlns="http://www.w3.org/2000/svg">
<path d="M29 29.2812C29 30.2083 28.8229 31.0781 28.4688 31.8906C28.1146 32.7031 27.6302 33.4167 27.0156 34.0312C26.4115 34.6354 25.7031 35.1146 24.8906 35.4688C24.0781 35.8229 23.2083 36 22.2812 36H11.0781V13.5938H22.2812C23.2083 13.5938 24.0781 13.7708 24.8906 14.125C25.7031 14.4792 26.4115 14.9635 27.0156 15.5781C27.6302 16.1823 28.1146 16.8906 28.4688 17.7031C28.8229 18.5156 29 19.3854 29 20.3125C29 20.7292 28.9427 21.1562 28.8281 21.5938C28.7135 22.0312 28.5521 22.4531 28.3438 22.8594C28.1354 23.2656 27.8854 23.6354 27.5938 23.9688C27.3021 24.3021 26.9792 24.5781 26.625 24.7969C26.9896 24.9948 27.3177 25.2656 27.6094 25.6094C27.901 25.9427 28.151 26.3125 28.3594 26.7188C28.5677 27.125 28.724 27.5521 28.8281 28C28.9427 28.4375 29 28.8646 29 29.2812ZM15.5625 31.5156H22.2812C22.5938 31.5156 22.8854 31.4583 23.1562 31.3438C23.4271 31.2292 23.6615 31.0729 23.8594 30.875C24.0677 30.6667 24.2292 30.4271 24.3438 30.1562C24.4583 29.8854 24.5156 29.5938 24.5156 29.2812C24.5156 28.9688 24.4583 28.6771 24.3438 28.4062C24.2292 28.1354 24.0677 27.901 23.8594 27.7031C23.6615 27.4948 23.4271 27.3333 23.1562 27.2188C22.8854 27.1042 22.5938 27.0469 22.2812 27.0469H15.5625V31.5156ZM15.5625 22.5625H22.2812C22.5938 22.5625 22.8854 22.5052 23.1562 22.3906C23.4271 22.276 23.6615 22.1198 23.8594 21.9219C24.0677 21.7135 24.2292 21.474 24.3438 21.2031C24.4583 20.9219 24.5156 20.625 24.5156 20.3125C24.5156 20 24.4583 19.7083 24.3438 19.4375C24.2292 19.1667 24.0677 18.9323 23.8594 18.7344C23.6615 18.526 23.4271 18.3646 23.1562 18.25C22.8854 18.1354 22.5938 18.0781 22.2812 18.0781H15.5625V22.5625ZM50.0625 27.0469C50.0625 28.2865 49.8281 29.4531 49.3594 30.5469C48.8906 31.6302 48.25 32.5781 47.4375 33.3906C46.625 34.1927 45.6719 34.8281 44.5781 35.2969C43.4948 35.7656 42.3333 36 41.0938 36C39.8542 36 38.6875 35.7656 37.5938 35.2969C36.5104 34.8281 35.5625 34.1927 34.75 33.3906C33.9479 32.5781 33.3125 31.6302 32.8438 30.5469C32.375 29.4531 32.1406 28.2865 32.1406 27.0469V13.5938H36.6094V27.0469C36.6094 27.6615 36.724 28.2396 36.9531 28.7812C37.1927 29.3229 37.5156 29.7969 37.9219 30.2031C38.3281 30.6094 38.8021 30.9323 39.3438 31.1719C39.8958 31.401 40.4792 31.5156 41.0938 31.5156C41.7083 31.5156 42.2865 31.401 42.8281 31.1719C43.3802 30.9323 43.8594 30.6094 44.2656 30.2031C44.6719 29.7969 44.9896 29.3229 45.2188 28.7812C45.4583 28.2396 45.5781 27.6615 45.5781 27.0469V13.5938H50.0625V27.0469ZM71.7812 33.7344C70.7396 34.6198 69.5781 35.3021 68.2969 35.7812C67.0156 36.25 65.6823 36.4844 64.2969 36.4844C63.2344 36.4844 62.2083 36.3438 61.2188 36.0625C60.2396 35.7917 59.3229 35.4062 58.4688 34.9062C57.6146 34.3958 56.8333 33.7917 56.125 33.0938C55.4167 32.3854 54.8125 31.6042 54.3125 30.75C53.8125 29.8854 53.4219 28.9583 53.1406 27.9688C52.8698 26.9792 52.7344 25.9531 52.7344 24.8906C52.7344 23.8281 52.8698 22.8073 53.1406 21.8281C53.4219 20.849 53.8125 19.9323 54.3125 19.0781C54.8125 18.2135 55.4167 17.4323 56.125 16.7344C56.8333 16.026 57.6146 15.4219 58.4688 14.9219C59.3229 14.4219 60.2396 14.0365 61.2188 13.7656C62.2083 13.4844 63.2344 13.3438 64.2969 13.3438C65.6823 13.3438 67.0156 13.5833 68.2969 14.0625C69.5781 14.5312 70.7396 15.2083 71.7812 16.0938L69.4375 20C68.7604 19.3125 67.9792 18.776 67.0938 18.3906C66.2083 17.9948 65.276 17.7969 64.2969 17.7969C63.3177 17.7969 62.3958 17.9844 61.5312 18.3594C60.6771 18.7344 59.9271 19.2448 59.2812 19.8906C58.6354 20.526 58.125 21.276 57.75 22.1406C57.375 22.9948 57.1875 23.9115 57.1875 24.8906C57.1875 25.8802 57.375 26.8073 57.75 27.6719C58.125 28.5365 58.6354 29.2917 59.2812 29.9375C59.9271 30.5833 60.6771 31.0938 61.5312 31.4688C62.3958 31.8438 63.3177 32.0312 64.2969 32.0312C64.8594 32.0312 65.4062 31.9635 65.9375 31.8281C66.4688 31.6927 66.974 31.5052 67.4531 31.2656V24.8906H71.7812V33.7344ZM88.4219 27.0469V22.5625C88.4219 21.9479 88.3021 21.3698 88.0625 20.8281C87.8333 20.276 87.5156 19.7969 87.1094 19.3906C86.7031 18.9844 86.224 18.6667 85.6719 18.4375C85.1302 18.1979 84.5521 18.0781 83.9375 18.0781C83.3229 18.0781 82.7396 18.1979 82.1875 18.4375C81.6458 18.6667 81.1719 18.9844 80.7656 19.3906C80.3594 19.7969 80.0365 20.276 79.7969 20.8281C79.5677 21.3698 79.4531 21.9479 79.4531 22.5625V27.0469H88.4219ZM92.9062 36H88.4219V31.5156H79.4531V36H74.9844V22.5625C74.9844 21.3229 75.2188 20.1615 75.6875 19.0781C76.1562 17.9844 76.7917 17.0312 77.5938 16.2188C78.4062 15.4062 79.3542 14.7656 80.4375 14.2969C81.5312 13.8281 82.6979 13.5938 83.9375 13.5938C85.1771 13.5938 86.3385 13.8281 87.4219 14.2969C88.5156 14.7656 89.4688 15.4062 90.2812 16.2188C91.0938 17.0312 91.7344 17.9844 92.2031 19.0781C92.6719 20.1615 92.9062 21.3229 92.9062 22.5625V36Z" fill="#003049"/>
<path d="M139.223 12.936L124.223 4.686C124.002 4.56415 123.753 4.50026 123.5 4.50026C123.247 4.50026 122.999 4.56415 122.777 4.686L107.777 12.936C107.542 13.0655 107.346 13.2557 107.209 13.4869C107.073 13.718 107 13.9815 107 14.25C107 14.5185 107.073 14.782 107.209 15.0132C107.346 15.2443 107.542 15.4345 107.777 15.564L122 23.3865V39.465L117.446 36.96L116 39.5865L122.777 43.314C122.998 43.4361 123.247 43.5002 123.5 43.5002C123.753 43.5002 124.002 43.4361 124.223 43.314L139.223 35.064C139.458 34.9346 139.654 34.7444 139.791 34.5132C139.928 34.2821 140 34.0185 140 33.75V14.25C140 13.9815 139.928 13.7179 139.791 13.4868C139.654 13.2556 139.458 13.0654 139.223 12.936ZM123.5 7.713L135.388 14.25L123.5 20.787L111.613 14.25L123.5 7.713ZM137 32.8635L125 39.4635V23.385L137 16.785V32.8635Z" fill="#003049"/>
<path d="M110 24H98V21H110V24ZM113 36H101V33H113V36ZM116 30H104V27H116V30Z" fill="#D62828"/>
<path d="M19.9863 85H2.33789V59.793H7.38281V79.9551H19.9863V85ZM39.8145 75.4199C39.8145 76.8262 39.5625 78.1387 39.0586 79.3574C38.5547 80.5645 37.8691 81.6133 37.002 82.5039C36.1348 83.3828 35.1152 84.0801 33.9434 84.5957C32.7832 85.0996 31.5352 85.3516 30.1992 85.3516C28.875 85.3516 27.627 85.0996 26.4551 84.5957C25.2949 84.0801 24.2754 83.3828 23.3965 82.5039C22.5293 81.6133 21.8438 80.5645 21.3398 79.3574C20.8359 78.1387 20.584 76.8262 20.584 75.4199C20.584 73.9902 20.8359 72.666 21.3398 71.4473C21.8438 70.2285 22.5293 69.1797 23.3965 68.3008C24.2754 67.4102 25.2949 66.7129 26.4551 66.209C27.627 65.7051 28.875 65.4531 30.1992 65.4531C31.5352 65.4531 32.7832 65.6934 33.9434 66.1738C35.1152 66.6426 36.1348 67.3164 37.002 68.1953C37.8691 69.0625 38.5547 70.1113 39.0586 71.3418C39.5625 72.5605 39.8145 73.9199 39.8145 75.4199ZM34.9805 75.4199C34.9805 74.6465 34.8516 73.9492 34.5938 73.3281C34.3477 72.6953 34.0078 72.1562 33.5742 71.7109C33.1406 71.2539 32.6309 70.9082 32.0449 70.6738C31.4707 70.4277 30.8555 70.3047 30.1992 70.3047C29.543 70.3047 28.9219 70.4277 28.3359 70.6738C27.7617 70.9082 27.2578 71.2539 26.8242 71.7109C26.4023 72.1562 26.0684 72.6953 25.8223 73.3281C25.5762 73.9492 25.4531 74.6465 25.4531 75.4199C25.4531 76.1465 25.5762 76.8203 25.8223 77.4414C26.0684 78.0625 26.4023 78.6016 26.8242 79.0586C27.2578 79.5156 27.7617 79.8789 28.3359 80.1484C28.9219 80.4062 29.543 80.5352 30.1992 80.5352C30.8555 80.5352 31.4707 80.4121 32.0449 80.166C32.6309 79.9199 33.1406 79.5742 33.5742 79.1289C34.0078 78.6836 34.3477 78.1445 34.5938 77.5117C34.8516 76.8789 34.9805 76.1816 34.9805 75.4199ZM55.8633 75.4199C55.8633 74.7637 55.7344 74.1309 55.4766 73.5215C55.2305 72.9004 54.8906 72.3555 54.457 71.8867C54.0234 71.4062 53.5137 71.0254 52.9277 70.7441C52.3535 70.4512 51.7383 70.3047 51.082 70.3047C50.4258 70.3047 49.8047 70.416 49.2188 70.6387C48.6445 70.8613 48.1406 71.1895 47.707 71.623C47.2852 72.0566 46.9512 72.5957 46.7051 73.2402C46.459 73.873 46.3359 74.5996 46.3359 75.4199C46.3359 76.2051 46.459 76.9141 46.7051 77.5469C46.9512 78.168 47.2852 78.7012 47.707 79.1465C48.1406 79.5918 48.6445 79.9375 49.2188 80.1836C49.8047 80.418 50.4258 80.5352 51.082 80.5352C51.7383 80.5352 52.3535 80.3945 52.9277 80.1133C53.5137 79.8203 54.0234 79.4395 54.457 78.9707C54.8906 78.4902 55.2305 77.9453 55.4766 77.3359C55.7344 76.7148 55.8633 76.0762 55.8633 75.4199ZM60.6973 82.627C60.6973 83.9512 60.4453 85.1934 59.9414 86.3535C59.4375 87.5137 58.7461 88.5273 57.8672 89.3945C57 90.2617 55.9805 90.9473 54.8086 91.4512C53.6484 91.9551 52.4062 92.207 51.082 92.207L48.6738 92.1719V87.373L51.0469 87.4082C51.7969 87.4082 52.4355 87.3086 52.9629 87.1094C53.4902 86.9219 53.9355 86.6582 54.2988 86.3184C54.6621 85.9902 54.9492 85.6094 55.1602 85.1758C55.3828 84.7422 55.5586 84.2852 55.6875 83.8047C55.5 84.1094 55.2305 84.3613 54.8789 84.5605C54.5273 84.748 54.1348 84.9004 53.7012 85.0176C53.2793 85.1465 52.834 85.2344 52.3652 85.2812C51.9082 85.3281 51.4805 85.3516 51.082 85.3516C49.7578 85.3516 48.5098 85.123 47.3379 84.666C46.1777 84.209 45.1582 83.5586 44.2793 82.7148C43.4121 81.8594 42.7266 80.8164 42.2227 79.5859C41.7188 78.3555 41.4668 76.9668 41.4668 75.4199C41.4668 74.002 41.7188 72.6836 42.2227 71.4648C42.7266 70.2461 43.4121 69.1914 44.2793 68.3008C45.1582 67.4102 46.1777 66.7129 47.3379 66.209C48.5098 65.7051 49.7578 65.4531 51.082 65.4531C51.6914 65.4531 52.2949 65.5293 52.8926 65.6816C53.4902 65.834 54.0703 66.0449 54.6328 66.3145C55.1953 66.584 55.7285 66.9004 56.2324 67.2637C56.748 67.627 57.2285 68.0195 57.6738 68.4414L59.5371 66.209H60.6973V82.627ZM70.0312 61.0586C70.0312 61.5039 69.9434 61.9199 69.7676 62.3066C69.6035 62.6934 69.375 63.0332 69.082 63.3262C68.7891 63.6074 68.4434 63.8359 68.0449 64.0117C67.6582 64.1758 67.2422 64.2578 66.7969 64.2578C66.3516 64.2578 65.9297 64.1758 65.5312 64.0117C65.1445 63.8359 64.8047 63.6074 64.5117 63.3262C64.2305 63.0332 64.002 62.6934 63.8262 62.3066C63.6621 61.9199 63.5801 61.5039 63.5801 61.0586C63.5801 60.625 63.6621 60.2148 63.8262 59.8281C64.002 59.4297 64.2305 59.0898 64.5117 58.8086C64.8047 58.5156 65.1445 58.2871 65.5312 58.123C65.9297 57.9473 66.3516 57.8594 66.7969 57.8594C67.2422 57.8594 67.6582 57.9473 68.0449 58.123C68.4434 58.2871 68.7891 58.5156 69.082 58.8086C69.375 59.0898 69.6035 59.4297 69.7676 59.8281C69.9434 60.2148 70.0312 60.625 70.0312 61.0586ZM69.2051 85H64.3711V66.1738H69.2051V85ZM83.2148 85H72.2461V80.2188H83.2148C83.543 80.2188 83.8242 80.1016 84.0586 79.8672C84.293 79.6328 84.4102 79.3516 84.4102 79.0234C84.4102 78.6836 84.293 78.4609 84.0586 78.3555C83.8242 78.25 83.543 78.1973 83.2148 78.1973H78.2227C77.3906 78.1973 76.6113 78.0391 75.8848 77.7227C75.1582 77.4062 74.5254 76.9785 73.9863 76.4395C73.4473 75.8887 73.0195 75.25 72.7031 74.5234C72.3984 73.7969 72.2461 73.0176 72.2461 72.1855C72.2461 71.3535 72.3984 70.5742 72.7031 69.8477C73.0195 69.1211 73.4473 68.4883 73.9863 67.9492C74.5254 67.4102 75.1582 66.9883 75.8848 66.6836C76.6113 66.3672 77.3906 66.209 78.2227 66.209H87.9434V70.9902H78.2227C77.8945 70.9902 77.6133 71.1074 77.3789 71.3418C77.1445 71.5762 77.0273 71.8574 77.0273 72.1855C77.0273 72.5254 77.1445 72.8184 77.3789 73.0645C77.6133 73.2988 77.8945 73.416 78.2227 73.416H83.2148C84.0352 73.416 84.8086 73.5566 85.5352 73.8379C86.2617 74.1074 86.8945 74.4883 87.4336 74.9805C87.9727 75.4727 88.4004 76.0645 88.7168 76.7559C89.0332 77.4473 89.1914 78.2031 89.1914 79.0234C89.1914 79.8555 89.0332 80.6348 88.7168 81.3613C88.4004 82.0762 87.9727 82.709 87.4336 83.2598C86.8945 83.7988 86.2617 84.2266 85.5352 84.543C84.8086 84.8477 84.0352 85 83.2148 85ZM101.197 85C100.037 85 98.9473 84.7832 97.9277 84.3496C96.9082 83.9043 96.0117 83.3008 95.2383 82.5391C94.4766 81.7656 93.873 80.8691 93.4277 79.8496C92.9941 78.8301 92.7773 77.7402 92.7773 76.5801V70.9902H90.4395V66.209H92.7773V58.6855H97.5586V66.209H104.836V70.9902H97.5586V76.5801C97.5586 77.084 97.6523 77.5586 97.8398 78.0039C98.0273 78.4375 98.2852 78.8184 98.6133 79.1465C98.9414 79.4746 99.3281 79.7383 99.7734 79.9375C100.219 80.125 100.693 80.2188 101.197 80.2188H104.836V85H101.197ZM113.203 61.0586C113.203 61.5039 113.115 61.9199 112.939 62.3066C112.775 62.6934 112.547 63.0332 112.254 63.3262C111.961 63.6074 111.615 63.8359 111.217 64.0117C110.83 64.1758 110.414 64.2578 109.969 64.2578C109.523 64.2578 109.102 64.1758 108.703 64.0117C108.316 63.8359 107.977 63.6074 107.684 63.3262C107.402 63.0332 107.174 62.6934 106.998 62.3066C106.834 61.9199 106.752 61.5039 106.752 61.0586C106.752 60.625 106.834 60.2148 106.998 59.8281C107.174 59.4297 107.402 59.0898 107.684 58.8086C107.977 58.5156 108.316 58.2871 108.703 58.123C109.102 57.9473 109.523 57.8594 109.969 57.8594C110.414 57.8594 110.83 57.9473 111.217 58.123C111.615 58.2871 111.961 58.5156 112.254 58.8086C112.547 59.0898 112.775 59.4297 112.939 59.8281C113.115 60.2148 113.203 60.625 113.203 61.0586ZM112.377 85H107.543V66.1738H112.377V85ZM132.504 69.918L128.988 73.4512C128.812 72.959 128.572 72.5195 128.268 72.1328C127.963 71.7344 127.617 71.4004 127.23 71.1309C126.855 70.8613 126.445 70.6562 126 70.5156C125.555 70.375 125.098 70.3047 124.629 70.3047C123.973 70.3047 123.352 70.4395 122.766 70.709C122.191 70.9785 121.688 71.3594 121.254 71.8516C120.832 72.332 120.498 72.9062 120.252 73.5742C120.006 74.2422 119.883 74.9805 119.883 75.7891C119.883 76.4453 120.006 77.0605 120.252 77.6348C120.498 78.209 120.832 78.7129 121.254 79.1465C121.688 79.5801 122.191 79.9199 122.766 80.166C123.352 80.4121 123.973 80.5352 124.629 80.5352C125.098 80.5352 125.549 80.4707 125.982 80.3418C126.416 80.2129 126.82 80.0312 127.195 79.7969C127.582 79.5508 127.922 79.2578 128.215 78.918C128.52 78.5664 128.766 78.1797 128.953 77.7578L132.469 81.291C132.023 81.9238 131.508 82.4922 130.922 82.9961C130.348 83.5 129.721 83.9277 129.041 84.2793C128.373 84.6309 127.664 84.8945 126.914 85.0703C126.176 85.2578 125.414 85.3516 124.629 85.3516C123.305 85.3516 122.057 85.1055 120.885 84.6133C119.725 84.1094 118.705 83.4238 117.826 82.5566C116.959 81.6895 116.273 80.6758 115.77 79.5156C115.266 78.3555 115.014 77.1133 115.014 75.7891C115.014 74.3477 115.266 73 115.77 71.7461C116.273 70.4922 116.959 69.4023 117.826 68.4766C118.705 67.5391 119.725 66.8008 120.885 66.2617C122.057 65.7227 123.305 65.4531 124.629 65.4531C125.414 65.4531 126.182 65.5527 126.932 65.752C127.693 65.9512 128.414 66.2441 129.094 66.6309C129.785 67.0059 130.418 67.4688 130.992 68.0195C131.578 68.5703 132.082 69.2031 132.504 69.918ZM145.195 85H134.227V80.2188H145.195C145.523 80.2188 145.805 80.1016 146.039 79.8672C146.273 79.6328 146.391 79.3516 146.391 79.0234C146.391 78.6836 146.273 78.4609 146.039 78.3555C145.805 78.25 145.523 78.1973 145.195 78.1973H140.203C139.371 78.1973 138.592 78.0391 137.865 77.7227C137.139 77.4062 136.506 76.9785 135.967 76.4395C135.428 75.8887 135 75.25 134.684 74.5234C134.379 73.7969 134.227 73.0176 134.227 72.1855C134.227 71.3535 134.379 70.5742 134.684 69.8477C135 69.1211 135.428 68.4883 135.967 67.9492C136.506 67.4102 137.139 66.9883 137.865 66.6836C138.592 66.3672 139.371 66.209 140.203 66.209H149.924V70.9902H140.203C139.875 70.9902 139.594 71.1074 139.359 71.3418C139.125 71.5762 139.008 71.8574 139.008 72.1855C139.008 72.5254 139.125 72.8184 139.359 73.0645C139.594 73.2988 139.875 73.416 140.203 73.416H145.195C146.016 73.416 146.789 73.5566 147.516 73.8379C148.242 74.1074 148.875 74.4883 149.414 74.9805C149.953 75.4727 150.381 76.0645 150.697 76.7559C151.014 77.4473 151.172 78.2031 151.172 79.0234C151.172 79.8555 151.014 80.6348 150.697 81.3613C150.381 82.0762 149.953 82.709 149.414 83.2598C148.875 83.7988 148.242 84.2266 147.516 84.543C146.789 84.8477 146.016 85 145.195 85Z" fill="#D62828"/>
</svg>
