<svg width="225" height="200" viewBox="0 0 225 200" fill="none" xmlns="http://www.w3.org/2000/svg">
<g clip-path="url(#clip0_11_2289)">
<path d="M222.331 76.484C222.251 76.484 222.173 76.4596 222.107 76.4139L113.279 1.13038C112.948 0.902342 112.554 0.780476 112.151 0.781158C111.748 0.781841 111.355 0.905038 111.025 1.13419L2.98055 76.4132C2.8951 76.4727 2.78933 76.4961 2.68652 76.4782C2.5837 76.4603 2.49227 76.4025 2.43232 76.3176C2.37238 76.2327 2.34884 76.1277 2.36689 76.0255C2.38493 75.9234 2.44308 75.8326 2.52854 75.773L110.573 0.494063C111.035 0.173293 111.586 0.000863623 112.15 -5.73267e-05C112.714 -0.000978276 113.265 0.169652 113.729 0.48891L222.556 75.7723C222.625 75.8199 222.677 75.888 222.704 75.9668C222.731 76.0456 222.732 76.1308 222.707 76.2103C222.682 76.2897 222.632 76.359 222.564 76.4082C222.497 76.4575 222.415 76.484 222.331 76.484L222.331 76.484Z" fill="#3F3D56"/>
<path d="M9.15454 79.1526L112.258 3.25165L216.144 84.5533L117.57 142.598L64.0535 130.481L9.15454 79.1526Z" fill="#DDDDDD"/>
<path d="M68.5707 178.45H17.6351C17.3223 178.45 17.0125 178.389 16.7235 178.271C16.4344 178.152 16.1717 177.978 15.9504 177.758C15.7291 177.539 15.5535 177.278 15.4338 176.991C15.314 176.704 15.2523 176.397 15.2523 176.086C15.2523 175.775 15.314 175.468 15.4338 175.181C15.5535 174.894 15.7291 174.633 15.9504 174.413C16.1717 174.194 16.4344 174.02 16.7235 173.901C17.0125 173.783 17.3223 173.722 17.6351 173.722H68.5707C68.8835 173.722 69.1933 173.783 69.4824 173.901C69.7714 174.02 70.0341 174.194 70.2554 174.413C70.4767 174.633 70.6523 174.894 70.7721 175.181C70.8918 175.468 70.9535 175.775 70.9535 176.086C70.9535 176.397 70.8918 176.704 70.7721 176.991C70.6523 177.278 70.4767 177.539 70.2554 177.758C70.0341 177.978 69.7714 178.152 69.4824 178.271C69.1933 178.389 68.8835 178.45 68.5707 178.45Z" fill="#003049"/>
<path d="M35.9097 168.287H17.6351C17.3223 168.287 17.0125 168.226 16.7235 168.108C16.4344 167.989 16.1717 167.815 15.9504 167.596C15.7291 167.376 15.5535 167.115 15.4338 166.828C15.314 166.541 15.2523 166.234 15.2523 165.923C15.2523 165.612 15.314 165.305 15.4338 165.018C15.5535 164.731 15.7291 164.47 15.9504 164.251C16.1717 164.031 16.4344 163.857 16.7235 163.738C17.0125 163.62 17.3223 163.559 17.6351 163.559H35.9097C36.2224 163.559 36.5322 163.62 36.8213 163.738C37.1103 163.857 37.373 164.031 37.5943 164.251C37.8156 164.47 37.9912 164.731 38.111 165.018C38.2307 165.305 38.2924 165.612 38.2924 165.923C38.2924 166.234 38.2307 166.541 38.111 166.828C37.9912 167.115 37.8156 167.376 37.5943 167.596C37.373 167.815 37.1103 167.989 36.8213 168.108C36.5322 168.226 36.2224 168.287 35.9097 168.287Z" fill="#003049"/>
<path d="M113.708 121.428C113.321 121.429 112.937 121.354 112.579 121.209L48.9917 95.0012V12.9671C48.9926 12.2417 49.283 11.5462 49.7994 11.0333C50.3158 10.5203 51.016 10.2318 51.7462 10.231H173.733C174.464 10.2318 175.164 10.5203 175.68 11.0333C176.197 11.5462 176.487 12.2417 176.488 12.9671V95.0585L176.368 95.1092L114.871 121.196C114.503 121.35 114.107 121.429 113.708 121.428Z" fill="#FAFAFA"/>
<path d="M113.708 121.624C113.295 121.624 112.886 121.545 112.504 121.39L48.7949 95.1317V12.967C48.7958 12.1898 49.107 11.4446 49.6603 10.8951C50.2136 10.3455 50.9638 10.0363 51.7462 10.0355H173.733C174.516 10.0363 175.266 10.3455 175.819 10.8951C176.373 11.4446 176.684 12.1898 176.685 12.967V95.1875L114.948 121.376C114.556 121.54 114.134 121.624 113.708 121.624ZM49.5819 94.6095L112.804 120.667C113.394 120.905 114.054 120.901 114.641 120.656L175.898 94.6714V12.967C175.897 12.3971 175.669 11.8506 175.263 11.4476C174.857 11.0446 174.307 10.8179 173.733 10.8172H51.7462C51.1724 10.8179 50.6223 11.0446 50.2166 11.4476C49.8109 11.8506 49.5826 12.3971 49.5819 12.967L49.5819 94.6095Z" fill="#3F3D56"/>
<path d="M221.545 75.7023H221.466L176.291 94.8629L114.483 121.079C114.242 121.18 113.982 121.232 113.72 121.234C113.458 121.235 113.199 121.185 112.956 121.087L49.1884 94.8082L2.90404 75.7335L2.83333 75.7023H2.75455C2.02425 75.7031 1.32408 75.9916 0.807682 76.5045C0.291279 77.0175 0.00081033 77.713 0 78.4384V197.264C0.000811369 197.989 0.291279 198.685 0.807682 199.198C1.32408 199.711 2.02425 199.999 2.75455 200H221.545C222.275 199.999 222.975 199.711 223.491 199.198C224.008 198.685 224.298 197.989 224.299 197.264V78.4384C224.298 77.713 224.008 77.0175 223.491 76.5045C222.975 75.9916 222.275 75.7031 221.545 75.7023ZM223.512 197.264C223.512 197.782 223.305 198.279 222.936 198.646C222.567 199.012 222.066 199.218 221.545 199.218H2.75455C2.23279 199.218 1.73246 199.012 1.36352 198.646C0.994586 198.279 0.787223 197.782 0.787014 197.264V78.4384C0.787728 77.933 0.98509 77.4474 1.33784 77.0832C1.69059 76.719 2.17141 76.5043 2.67981 76.484L49.1884 95.6524L112.653 121.81C113.34 122.087 114.11 122.083 114.794 121.798L176.291 95.7111L221.623 76.484C222.131 76.5058 222.61 76.7211 222.962 77.0851C223.314 77.4491 223.511 77.9338 223.512 78.4384V197.264Z" fill="#3F3D56"/>
<path d="M113.072 98.1666C110.725 98.171 108.44 97.417 106.561 96.0184L106.445 95.9315L81.9251 77.2839C80.7895 76.4197 79.8365 75.3417 79.1203 74.1116C78.4041 72.8815 77.9389 71.5233 77.7512 70.1146C77.5635 68.7059 77.6569 67.2743 78.0262 65.9014C78.3955 64.5286 79.0333 63.2414 79.9034 62.1135C80.7735 60.9855 81.8587 60.0388 83.0971 59.3275C84.3355 58.6161 85.7028 58.154 87.121 57.9675C88.5392 57.781 89.9805 57.8739 91.3626 58.2407C92.7447 58.6075 94.0405 59.2411 95.1761 60.1053L111.058 72.202L148.59 23.5826C149.461 22.4549 150.546 21.5086 151.785 20.7976C153.023 20.0867 154.391 19.625 155.809 19.4391C157.227 19.2531 158.669 19.3464 160.051 19.7138C161.433 20.0811 162.728 20.7152 163.863 21.5799L163.63 21.8946L163.869 21.5845C166.159 23.3327 167.658 25.9118 168.036 28.756C168.414 31.6001 167.64 34.4771 165.886 36.7556L121.739 93.9437C120.718 95.2616 119.405 96.328 117.902 97.0604C116.399 97.7927 114.746 98.1712 113.072 98.1666Z" fill="#003049"/>
</g>
<defs>
<clipPath id="clip0_11_2289">
<rect width="224.299" height="200" fill="white"/>
</clipPath>
</defs>
</svg>
