<svg width="24" height="24" viewBox="0 0 24 24" fill="none" xmlns="http://www.w3.org/2000/svg">
<path d="M8.63434 13.8843H2.63434V7.88434" stroke="#333333" stroke-width="1.5" stroke-linecap="round" stroke-linejoin="round"/>
<path d="M8.63434 13.8843H2.63434V7.88434" stroke="#333333" stroke-width="1.5" stroke-linecap="round" stroke-linejoin="round"/>
<path d="M21 17.25C21.0006 15.4695 20.4731 13.7288 19.4843 12.2482C18.4954 10.7675 17.0895 9.61344 15.4446 8.93198C13.7996 8.25052 11.9895 8.07228 10.2432 8.41982C8.49697 8.76737 6.89302 9.62507 5.63434 10.8844L2.63434 13.8844" stroke="#333333" stroke-width="1.5" stroke-linecap="round" stroke-linejoin="round"/>
<path d="M21 17.25C21.0006 15.4695 20.4731 13.7288 19.4843 12.2482C18.4954 10.7675 17.0895 9.61344 15.4446 8.93198C13.7996 8.25052 11.9895 8.07228 10.2432 8.41982C8.49697 8.76737 6.89302 9.62507 5.63434 10.8844L2.63434 13.8844" stroke="#333333" stroke-width="1.5" stroke-linecap="round" stroke-linejoin="round"/>
</svg>
