<svg width="13" height="12" viewBox="0 0 13 12" fill="none" xmlns="http://www.w3.org/2000/svg">
<path d="M8.18286 6.94214H11.1829V3.94214" stroke="#333333" stroke-width="1.5" stroke-linecap="round" stroke-linejoin="round"/>
<path d="M8.18286 6.94214H11.1829V3.94214" stroke="#666666" stroke-linecap="round" stroke-linejoin="round"/>
<path d="M2.00005 8.62496C1.99972 7.7347 2.26346 6.86435 2.75791 6.12402C3.25235 5.38369 3.95528 4.80666 4.77775 4.46593C5.60022 4.1252 6.50528 4.03608 7.37841 4.20985C8.25155 4.38362 9.05352 4.81247 9.68286 5.44214L11.1829 6.94215" stroke="#333333" stroke-width="1.5" stroke-linecap="round" stroke-linejoin="round"/>
<path d="M2.00005 8.62496C1.99972 7.7347 2.26346 6.86435 2.75791 6.12402C3.25235 5.38369 3.95528 4.80666 4.77775 4.46593C5.60022 4.1252 6.50528 4.03608 7.37841 4.20985C8.25155 4.38362 9.05352 4.81247 9.68286 5.44214L11.1829 6.94215" stroke="#666666" stroke-linecap="round" stroke-linejoin="round"/>
</svg>
