<svg width="40" height="40" viewBox="0 0 40 40" fill="none" xmlns="http://www.w3.org/2000/svg">
<path d="M20 23.6166C16.45 23.6166 13.55 20.7333 13.55 17.1666C13.55 13.5999 16.45 10.7333 20 10.7333C23.55 10.7333 26.45 13.6166 26.45 17.1833C26.45 20.7499 23.55 23.6166 20 23.6166ZM20 13.2333C17.8333 13.2333 16.05 14.9999 16.05 17.1833C16.05 19.3666 17.8167 21.1333 20 21.1333C22.1833 21.1333 23.95 19.3666 23.95 17.1833C23.95 14.9999 22.1667 13.2333 20 13.2333Z" fill="#003049"/>
<path d="M20 37.9334C17.5333 37.9334 15.05 37 13.1167 35.15C8.19999 30.4167 2.76666 22.8667 4.81666 13.8834C6.66666 5.73337 13.7833 2.08337 20 2.08337C20 2.08337 20 2.08337 20.0167 2.08337C26.2333 2.08337 33.35 5.73337 35.2 13.9C37.2333 22.8834 31.8 30.4167 26.8833 35.15C24.95 37 22.4667 37.9334 20 37.9334ZM20 4.58337C15.15 4.58337 8.91666 7.16671 7.26666 14.4334C5.46666 22.2834 10.4 29.05 14.8667 33.3334C17.75 36.1167 22.2667 36.1167 25.15 33.3334C29.6 29.05 34.5333 22.2834 32.7667 14.4334C31.1 7.16671 24.85 4.58337 20 4.58337Z" fill="#003049"/>
</svg>
