<svg width="21" height="20" viewBox="0 0 21 20" fill="none" xmlns="http://www.w3.org/2000/svg">
<path d="M10.4998 11.0834C10.3915 11.0834 10.2832 11.0584 10.1832 11.0001L2.82486 6.74175C2.52486 6.56675 2.42484 6.18339 2.59984 5.88339C2.77484 5.58339 3.14984 5.48337 3.45817 5.65837L10.4998 9.73339L17.4998 5.6834C17.7998 5.5084 18.1832 5.61675 18.3582 5.90841C18.5332 6.20841 18.4249 6.59172 18.1332 6.76672L10.8249 11.0001C10.7165 11.0501 10.6082 11.0834 10.4998 11.0834Z" fill="#AAAAAA"/>
<path d="M10.5 18.6333C10.1583 18.6333 9.875 18.35 9.875 18.0083V10.45C9.875 10.1083 10.1583 9.82495 10.5 9.82495C10.8417 9.82495 11.125 10.1083 11.125 10.45V18.0083C11.125 18.35 10.8417 18.6333 10.5 18.6333Z" fill="#AAAAAA"/>
<path d="M10.5001 18.9584C9.76675 18.9584 9.04175 18.8001 8.46675 18.4834L4.01675 16.0084C2.80842 15.3418 1.86676 13.7334 1.86676 12.3501V7.64173C1.86676 6.25839 2.80842 4.65843 4.01675 3.98343L8.46675 1.51675C9.60841 0.883415 11.3917 0.883415 12.5334 1.51675L16.9834 3.99172C18.1917 4.65839 19.1334 6.26674 19.1334 7.65007V12.3584C19.1334 13.7418 18.1917 15.3417 16.9834 16.0167L12.5334 18.4834C11.9584 18.8001 11.2334 18.9584 10.5001 18.9584ZM10.5001 2.29174C9.97508 2.29174 9.45842 2.40008 9.07509 2.60841L4.62509 5.08339C3.82509 5.53339 3.11676 6.72507 3.11676 7.65007V12.3584C3.11676 13.2751 3.82509 14.4751 4.62509 14.9251L9.07509 17.4001C9.83342 17.8251 11.1667 17.8251 11.9251 17.4001L16.3751 14.9251C17.1751 14.4751 17.8834 13.2834 17.8834 12.3584V7.65007C17.8834 6.7334 17.1751 5.53339 16.3751 5.08339L11.9251 2.60841C11.5417 2.40008 11.0251 2.29174 10.5001 2.29174Z" fill="#AAAAAA"/>
<path d="M14.6668 11.6585C14.3251 11.6585 14.0418 11.3751 14.0418 11.0335V8.35014L6.4418 3.9668C6.1418 3.7918 6.04178 3.40845 6.21678 3.11679C6.39178 2.81679 6.7668 2.71677 7.0668 2.89177L14.9751 7.45847C15.1668 7.56681 15.2918 7.77511 15.2918 8.00011V11.0501C15.2918 11.3751 15.0085 11.6585 14.6668 11.6585Z" fill="#AAAAAA"/>
</svg>
