<svg width="40" height="40" viewBox="0 0 40 40" fill="none" xmlns="http://www.w3.org/2000/svg">
<path d="M28.7333 37.9166H11.2667C6.6 37.9166 3.63334 35.1333 3.36667 30.4833L2.5 16.7333C2.36667 14.65 3.08334 12.65 4.51667 11.1333C5.93334 9.61665 7.93334 8.74998 10 8.74998C10.5333 8.74998 11.05 8.43331 11.3 7.93331L12.5 5.54998C13.4833 3.59998 15.95 2.08331 18.1 2.08331H21.9167C24.0667 2.08331 26.5167 3.59998 27.5 5.53331L28.7 7.96665C28.95 8.43331 29.45 8.74998 30 8.74998C32.0667 8.74998 34.0667 9.61665 35.4833 11.1333C36.9167 12.6666 37.6333 14.65 37.5 16.7333L36.6333 30.5C36.3333 35.2166 33.45 37.9166 28.7333 37.9166ZM18.1 4.58331C16.8667 4.58331 15.3 5.54998 14.7333 6.66665L13.5333 9.06665C12.8333 10.4166 11.4833 11.25 10 11.25C8.6 11.25 7.3 11.8166 6.33334 12.8333C5.38334 13.85 4.9 15.1833 5 16.5666L5.86667 30.3333C6.06667 33.7 7.88334 35.4166 11.2667 35.4166H28.7333C32.1 35.4166 33.9167 33.7 34.1333 30.3333L35 16.5666C35.0833 15.1833 34.6167 13.85 33.6667 12.8333C32.7 11.8166 31.4 11.25 30 11.25C28.5167 11.25 27.1667 10.4166 26.4667 9.09998L25.25 6.66665C24.7 5.56665 23.1333 4.59998 21.9 4.59998H18.1V4.58331Z" fill="#003049"/>
<path d="M22.5 14.5833H17.5C16.8167 14.5833 16.25 14.0166 16.25 13.3333C16.25 12.65 16.8167 12.0833 17.5 12.0833H22.5C23.1833 12.0833 23.75 12.65 23.75 13.3333C23.75 14.0166 23.1833 14.5833 22.5 14.5833Z" fill="#003049"/>
<path d="M20 31.25C16.3167 31.25 13.3333 28.2667 13.3333 24.5834C13.3333 20.9 16.3167 17.9167 20 17.9167C23.6833 17.9167 26.6667 20.9 26.6667 24.5834C26.6667 28.2667 23.6833 31.25 20 31.25ZM20 20.4167C17.7 20.4167 15.8333 22.2834 15.8333 24.5834C15.8333 26.8834 17.7 28.75 20 28.75C22.3 28.75 24.1667 26.8834 24.1667 24.5834C24.1667 22.2834 22.3 20.4167 20 20.4167Z" fill="#003049"/>
</svg>
