<svg width="6" height="4" viewBox="0 0 6 4" fill="none" xmlns="http://www.w3.org/2000/svg">
<path d="M1.06001 0.144973L3.00001 2.08497L4.94001 0.144973C4.9863 0.0986818 5.04125 0.0619621 5.10173 0.0369096C5.16222 0.0118571 5.22704 -0.0010376 5.29251 -0.0010376C5.35797 -0.0010376 5.42279 0.0118571 5.48328 0.0369096C5.54376 0.0619621 5.59871 0.0986818 5.64501 0.144973C5.6913 0.191264 5.72802 0.246219 5.75307 0.306701C5.77812 0.367183 5.79102 0.432007 5.79102 0.497473C5.79102 0.562938 5.77812 0.627762 5.75307 0.688244C5.72802 0.748726 5.6913 0.803682 5.64501 0.849973L3.35001 3.14497C3.15501 3.33997 2.84001 3.33997 2.64501 3.14497L0.350006 0.849973C0.303654 0.803716 0.26688 0.748771 0.241789 0.688285C0.216699 0.627798 0.203784 0.562957 0.203784 0.497473C0.203784 0.431989 0.216699 0.367147 0.241789 0.306661C0.26688 0.246174 0.303654 0.19123 0.350006 0.144973C0.545006 -0.0450272 0.865005 -0.0500272 1.06001 0.144973Z" fill="#333333"/>
</svg>
