<svg width="40" height="40" viewBox="0 0 40 40" fill="none" xmlns="http://www.w3.org/2000/svg">
<path d="M25.4333 37.0833H14.5666C6.3833 37.0833 2.8833 33.5833 2.8833 25.4V25.1833C2.8833 17.7833 5.79997 14.2167 12.3333 13.6C13 13.55 13.6333 14.05 13.7 14.7333C13.7666 15.4167 13.2666 16.0333 12.5666 16.1C7.3333 16.5833 5.3833 19.05 5.3833 25.2V25.4167C5.3833 32.2 7.7833 34.6 14.5666 34.6H25.4333C32.2166 34.6 34.6166 32.2 34.6166 25.4167V25.2C34.6166 19.0167 32.6333 16.55 27.3 16.1C26.6166 16.0333 26.1 15.4333 26.1666 14.75C26.2333 14.0667 26.8166 13.55 27.5166 13.6167C34.15 14.1833 37.1166 17.7667 37.1166 25.2167V25.4333C37.1166 33.5833 33.6166 37.0833 25.4333 37.0833Z" fill="#003049"/>
<path d="M20 25.75C19.5928 25.75 19.25 25.4072 19.25 25V6.03333C19.25 5.62613 19.5928 5.28333 20 5.28333C20.4072 5.28333 20.75 5.62613 20.75 6.03333V25C20.75 25.4072 20.4072 25.75 20 25.75Z" fill="#003049" stroke="#003049"/>
<path d="M20.3536 5.57978L20.0001 5.22623L19.6465 5.57978L14.9465 10.2798C14.6584 10.5679 14.175 10.5679 13.887 10.2798C13.5989 9.99171 13.5989 9.5083 13.887 9.22022L19.4703 3.63689C19.7584 3.34882 20.2418 3.34882 20.5298 3.63689L26.1132 9.22022C26.4012 9.5083 26.4012 9.99171 26.1132 10.2798L26.1071 10.2859L26.1012 10.2922C25.9776 10.4246 25.7854 10.5 25.5834 10.5C25.3922 10.5 25.2049 10.4311 25.0536 10.2798L20.3536 5.57978Z" fill="#003049" stroke="#003049"/>
</svg>
