<svg width="8" height="13" viewBox="0 0 8 13" fill="none" xmlns="http://www.w3.org/2000/svg">
<path d="M7.33333 1.33334C7.33333 1.24493 7.29821 1.16015 7.2357 1.09764C7.17319 1.03512 7.08841 1.00001 7 1.00001H5.33333C4.49408 0.958199 3.6724 1.25027 3.04781 1.81239C2.42323 2.37452 2.04652 3.161 2 4.00001V5.8H0.333333C0.244928 5.8 0.160143 5.83512 0.0976311 5.89764C0.035119 5.96015 0 6.04493 0 6.13334V7.86667C0 7.95508 0.035119 8.03986 0.0976311 8.10237C0.160143 8.16489 0.244928 8.2 0.333333 8.2H2V12.6667C2 12.7551 2.03512 12.8399 2.09763 12.9024C2.16014 12.9649 2.24493 13 2.33333 13H4.33333C4.42174 13 4.50652 12.9649 4.56904 12.9024C4.63155 12.8399 4.66667 12.7551 4.66667 12.6667V8.2H6.41333C6.48746 8.20107 6.55983 8.17739 6.61899 8.13272C6.67815 8.08805 6.72073 8.02493 6.74 7.95334L7.22 6.22C7.23326 6.17075 7.23504 6.11911 7.22521 6.06906C7.21538 6.01902 7.19419 5.97189 7.16327 5.93132C7.13236 5.89075 7.09255 5.85781 7.04691 5.83504C7.00127 5.81228 6.95101 5.80029 6.9 5.8H4.66667V4.00001C4.68325 3.83499 4.76074 3.68208 4.88402 3.57113C5.00729 3.46019 5.16749 3.39917 5.33333 3.4H7C7.08841 3.4 7.17319 3.36489 7.2357 3.30237C7.29821 3.23986 7.33333 3.15508 7.33333 3.06667V1.33334Z" fill="#003049"/>
</svg>
