<svg width="13" height="12" viewBox="0 0 13 12" fill="none" xmlns="http://www.w3.org/2000/svg">
<path d="M12.022 4.904H6.47068V7.20467H9.66534C9.36801 8.66667 8.12334 9.50667 6.47068 9.50667C6.00823 9.50746 5.55018 9.41695 5.1228 9.24032C4.69541 9.0637 4.3071 8.80444 3.98013 8.47741C3.65317 8.15038 3.39398 7.76202 3.21743 7.3346C3.04089 6.90718 2.95046 6.44911 2.95134 5.98667C2.95055 5.52428 3.04104 5.06629 3.21763 4.63894C3.39421 4.2116 3.65341 3.82332 3.98037 3.49636C4.30733 3.1694 4.69561 2.9102 5.12295 2.73362C5.55029 2.55704 6.00829 2.46655 6.47068 2.46734C7.31001 2.46734 8.06868 2.76534 8.66401 3.25267L10.3973 1.52C9.34134 0.599337 7.98734 0.0313364 6.47068 0.0313364C5.68788 0.0290483 4.91236 0.181543 4.18871 0.48005C3.46506 0.778556 2.80757 1.21718 2.25405 1.77071C1.70052 2.32423 1.2619 2.98172 0.963389 3.70537C0.664882 4.42902 0.512388 5.20454 0.514676 5.98734C0.512299 6.77016 0.664733 7.54572 0.963209 8.26941C1.26168 8.9931 1.70031 9.65062 2.25385 10.2042C2.80739 10.7577 3.46492 11.1963 4.1886 11.4948C4.91229 11.7933 5.68786 11.9457 6.47068 11.9433C9.44868 11.9433 12.1567 9.77734 12.1567 5.98734C12.1567 5.63534 12.1027 5.256 12.022 4.904Z" fill="#003049"/>
</svg>
