<svg width="21" height="20" viewBox="0 0 21 20" fill="none" xmlns="http://www.w3.org/2000/svg">
<path d="M15.325 18.9584H5.67502C3.39169 18.9584 1.54169 17.1001 1.54169 14.8167V8.64173C1.54169 7.50839 2.24169 6.08339 3.14169 5.38339L7.63335 1.88339C8.98335 0.833393 11.1417 0.783393 12.5417 1.76673L17.6917 5.37506C18.6834 6.06673 19.4584 7.55006 19.4584 8.75839V14.8251C19.4584 17.1001 17.6084 18.9584 15.325 18.9584ZM8.40002 2.86673L3.90835 6.36673C3.31669 6.83339 2.79169 7.89173 2.79169 8.64173V14.8167C2.79169 16.4084 4.08335 17.7084 5.67502 17.7084H15.325C16.9167 17.7084 18.2084 16.4167 18.2084 14.8251V8.75839C18.2084 7.95839 17.6334 6.85006 16.975 6.40006L11.825 2.79173C10.875 2.12506 9.30835 2.15839 8.40002 2.86673Z" fill="#D62828"/>
<path d="M10.5 15.625C10.1583 15.625 9.875 15.3417 9.875 15V12.5C9.875 12.1583 10.1583 11.875 10.5 11.875C10.8417 11.875 11.125 12.1583 11.125 12.5V15C11.125 15.3417 10.8417 15.625 10.5 15.625Z" fill="#D62828"/>
</svg>
