<svg width="21" height="20" viewBox="0 0 21 20" fill="none" xmlns="http://www.w3.org/2000/svg">
<path d="M10.5 11.8084C8.72502 11.8084 7.27502 10.3667 7.27502 8.58337C7.27502 6.80003 8.72502 5.3667 10.5 5.3667C12.275 5.3667 13.725 6.80837 13.725 8.5917C13.725 10.375 12.275 11.8084 10.5 11.8084ZM10.5 6.6167C9.41669 6.6167 8.52502 7.50003 8.52502 8.5917C8.52502 9.68337 9.40836 10.5667 10.5 10.5667C11.5917 10.5667 12.475 9.68337 12.475 8.5917C12.475 7.50003 11.5834 6.6167 10.5 6.6167Z" fill="#AAAAAA"/>
<path d="M10.5 18.9667C9.26669 18.9667 8.02502 18.5001 7.05836 17.5751C4.60002 15.2084 1.88336 11.4334 2.90836 6.94175C3.83336 2.86675 7.39169 1.04175 10.5 1.04175C10.5 1.04175 10.5 1.04175 10.5084 1.04175C13.6167 1.04175 17.175 2.86675 18.1 6.95008C19.1167 11.4417 16.4 15.2084 13.9417 17.5751C12.975 18.5001 11.7334 18.9667 10.5 18.9667ZM10.5 2.29175C8.07502 2.29175 4.95836 3.58341 4.13336 7.21675C3.23336 11.1417 5.70002 14.5251 7.93336 16.6667C9.37502 18.0584 11.6334 18.0584 13.075 16.6667C15.3 14.5251 17.7667 11.1417 16.8834 7.21675C16.05 3.58341 12.925 2.29175 10.5 2.29175Z" fill="#AAAAAA"/>
</svg>
