<svg width="48" height="48" viewBox="0 0 48 48" fill="none" xmlns="http://www.w3.org/2000/svg">
<circle cx="24" cy="24" r="24" fill="#003049"/>
<path d="M37.482 16.624L27.482 11.124C27.3343 11.0428 27.1685 11.0002 27 11.0002C26.8315 11.0002 26.6657 11.0428 26.518 11.124L16.518 16.624C16.3612 16.7103 16.2305 16.8372 16.1394 16.9912C16.0483 17.1453 16.0003 17.321 16.0003 17.5C16.0003 17.679 16.0483 17.8547 16.1394 18.0088C16.2305 18.1629 16.3612 18.2897 16.518 18.376L26 23.591V34.31L22.964 32.64L22 34.391L26.518 36.876C26.6656 36.9574 26.8314 37.0001 27 37.0001C27.1686 37.0001 27.3344 36.9574 27.482 36.876L37.482 31.376C37.6388 31.2897 37.7696 31.1629 37.8608 31.0088C37.9519 30.8547 38 30.679 38 30.5V17.5C38 17.321 37.9519 17.1453 37.8608 16.9912C37.7696 16.8371 37.6388 16.7103 37.482 16.624ZM27 13.142L34.925 17.5L27 21.858L19.075 17.5L27 13.142ZM36 29.909L28 34.309V23.59L36 19.19V29.909Z" fill="#FAFAFA"/>
<path d="M18 24H10V22H18V24ZM20 32H12V30H20V32ZM22 28H14V26H22V28Z" fill="#D62828"/>
</svg>
