<svg width="40" height="40" viewBox="0 0 40 40" fill="none" xmlns="http://www.w3.org/2000/svg">
<path d="M21.6666 24.5834H3.33331C2.64998 24.5834 2.08331 24.0167 2.08331 23.3334V10C2.08331 5.63337 5.63331 2.08337 9.99998 2.08337H25C25.6833 2.08337 26.25 2.65004 26.25 3.33337V20C26.25 22.5334 24.2 24.5834 21.6666 24.5834ZM4.58331 22.0834H21.6666C22.8166 22.0834 23.75 21.15 23.75 20V4.58337H9.99998C7.01665 4.58337 4.58331 7.01671 4.58331 10V22.0834Z" fill="#003049"/>
<path d="M31.6666 34.5834H30C29.3166 34.5834 28.75 34.0167 28.75 33.3334C28.75 32.1834 27.8166 31.25 26.6666 31.25C25.5166 31.25 24.5833 32.1834 24.5833 33.3334C24.5833 34.0167 24.0166 34.5834 23.3333 34.5834H16.6666C15.9833 34.5834 15.4166 34.0167 15.4166 33.3334C15.4166 32.1834 14.4833 31.25 13.3333 31.25C12.1833 31.25 11.25 32.1834 11.25 33.3334C11.25 34.0167 10.6833 34.5834 9.99998 34.5834H8.33331C4.88331 34.5834 2.08331 31.7834 2.08331 28.3334V23.3334C2.08331 22.65 2.64998 22.0834 3.33331 22.0834H21.6666C22.8166 22.0834 23.75 21.15 23.75 20V8.33337C23.75 7.65004 24.3166 7.08337 25 7.08337H28.0666C29.7166 7.08337 31.2333 7.96673 32.05 9.40006L34.9 14.3834C35.1167 14.7667 35.1167 15.25 34.9 15.6334C34.6833 16.0167 34.2667 16.25 33.8167 16.25H31.6666C31.4333 16.25 31.25 16.4334 31.25 16.6667V21.6667C31.25 21.9 31.4333 22.0834 31.6666 22.0834H36.6666C37.35 22.0834 37.9166 22.65 37.9166 23.3334V28.3334C37.9166 31.7834 35.1166 34.5834 31.6666 34.5834ZM31.0833 32.0834H31.6666C33.7333 32.0834 35.4166 30.4 35.4166 28.3334V24.5834H31.6666C30.0666 24.5834 28.75 23.2667 28.75 21.6667V16.6667C28.75 15.0667 30.05 13.75 31.6666 13.75L29.8833 10.6334C29.5166 9.98338 28.8166 9.58337 28.0666 9.58337H26.25V20C26.25 22.5334 24.2 24.5834 21.6666 24.5834H4.58331V28.3334C4.58331 30.4 6.26665 32.0834 8.33331 32.0834H8.91666C9.46666 30.1667 11.2333 28.75 13.3333 28.75C15.4333 28.75 17.2 30.1667 17.75 32.0834H22.2666C22.8166 30.1667 24.5833 28.75 26.6833 28.75C28.7833 28.75 30.5333 30.1667 31.0833 32.0834Z" fill="#003049"/>
<path d="M13.3333 37.9167C10.8 37.9167 8.75 35.8667 8.75 33.3333C8.75 30.8 10.8 28.75 13.3333 28.75C15.8667 28.75 17.9167 30.8 17.9167 33.3333C17.9167 35.8667 15.8667 37.9167 13.3333 37.9167ZM13.3333 31.25C12.1833 31.25 11.25 32.1833 11.25 33.3333C11.25 34.4833 12.1833 35.4167 13.3333 35.4167C14.4833 35.4167 15.4167 34.4833 15.4167 33.3333C15.4167 32.1833 14.4833 31.25 13.3333 31.25Z" fill="#003049"/>
<path d="M26.6666 37.9167C24.1333 37.9167 22.0833 35.8667 22.0833 33.3333C22.0833 30.8 24.1333 28.75 26.6666 28.75C29.2 28.75 31.25 30.8 31.25 33.3333C31.25 35.8667 29.2 37.9167 26.6666 37.9167ZM26.6666 31.25C25.5166 31.25 24.5833 32.1833 24.5833 33.3333C24.5833 34.4833 25.5166 35.4167 26.6666 35.4167C27.8166 35.4167 28.75 34.4833 28.75 33.3333C28.75 32.1833 27.8166 31.25 26.6666 31.25Z" fill="#212121"/>
<path d="M36.6667 24.5833H31.6667C30.0667 24.5833 28.75 23.2667 28.75 21.6667V16.6667C28.75 15.0667 30.0667 13.75 31.6667 13.75H33.8167C34.2667 13.75 34.6833 13.9833 34.9 14.3833L37.75 19.3833C37.85 19.5667 37.9167 19.7833 37.9167 20V23.3333C37.9167 24.0167 37.35 24.5833 36.6667 24.5833ZM31.6667 16.25C31.4333 16.25 31.25 16.4333 31.25 16.6667V21.6667C31.25 21.9 31.4333 22.0833 31.6667 22.0833H35.4167V20.3334L33.0833 16.25H31.6667Z" fill="#212121"/>
</svg>
