<svg width="40" height="40" viewBox="0 0 40 40" fill="none" xmlns="http://www.w3.org/2000/svg">
<path d="M21.6667 16.25H11.6667C10.9834 16.25 10.4167 15.6833 10.4167 15C10.4167 14.3167 10.9834 13.75 11.6667 13.75H21.6667C22.35 13.75 22.9167 14.3167 22.9167 15C22.9167 15.6833 22.35 16.25 21.6667 16.25Z" fill="#003049"/>
<path d="M31.7332 24.6665C29.2165 24.6665 27.0832 22.7999 26.8832 20.3999C26.7499 19.0165 27.2499 17.6666 28.2499 16.6832C29.0832 15.8166 30.2665 15.3333 31.5165 15.3333H34.9999C36.6499 15.3833 37.9165 16.6832 37.9165 18.2832V21.7166C37.9165 23.3166 36.6499 24.6165 35.0499 24.6665H31.7332ZM34.9498 17.8333H31.5332C30.9498 17.8333 30.4166 18.0499 30.0332 18.4499C29.5499 18.9166 29.3165 19.5499 29.3832 20.1832C29.4665 21.2832 30.5332 22.1665 31.7332 22.1665H34.9999C35.2165 22.1665 35.4165 21.9666 35.4165 21.7166V18.2832C35.4165 18.0332 35.2165 17.8499 34.9498 17.8333Z" fill="#003049"/>
<path d="M26.6666 35.4166H11.6666C5.93331 35.4166 2.08331 31.5666 2.08331 25.8333V14.1666C2.08331 9.03325 5.24994 5.3166 10.1666 4.69993C10.6166 4.63326 11.1333 4.58325 11.6666 4.58325H26.6666C27.0666 4.58325 27.5833 4.59991 28.1166 4.68325C33.0333 5.24991 36.25 8.98325 36.25 14.1666V16.5833C36.25 17.2666 35.6833 17.8333 35 17.8333H31.5333C30.95 17.8333 30.4167 18.0499 30.0333 18.4499L30.0167 18.4666C29.55 18.9166 29.3333 19.5332 29.3833 20.1665C29.4667 21.2665 30.5333 22.1499 31.7333 22.1499H35C35.6833 22.1499 36.25 22.7165 36.25 23.3999V25.8166C36.25 31.5666 32.4 35.4166 26.6666 35.4166ZM11.6666 7.08325C11.2666 7.08325 10.8833 7.11656 10.5 7.16657C6.83329 7.63323 4.58331 10.2999 4.58331 14.1666V25.8333C4.58331 30.1333 7.36665 32.9166 11.6666 32.9166H26.6666C30.9666 32.9166 33.75 30.1333 33.75 25.8333V24.6666H31.7333C29.2166 24.6666 27.0833 22.7999 26.8833 20.3999C26.75 19.0332 27.25 17.6666 28.25 16.7C29.1167 15.8166 30.2833 15.3333 31.5333 15.3333H33.75V14.1666C33.75 10.2666 31.4666 7.58322 27.7666 7.14988C27.3666 7.08322 27.0166 7.08325 26.6666 7.08325H11.6666Z" fill="#003049"/>
</svg>
