<svg width="20" height="20" viewBox="0 0 20 20" fill="none" xmlns="http://www.w3.org/2000/svg">
<path d="M10.8333 8.125H5.83331C5.49165 8.125 5.20831 7.84167 5.20831 7.5C5.20831 7.15833 5.49165 6.875 5.83331 6.875H10.8333C11.175 6.875 11.4583 7.15833 11.4583 7.5C11.4583 7.84167 11.175 8.125 10.8333 8.125Z" fill="#AAAAAA"/>
<path d="M15.8666 12.3331C14.6082 12.3331 13.5416 11.3998 13.4416 10.1998C13.3749 9.50815 13.6249 8.83317 14.1249 8.3415C14.5416 7.90817 15.1332 7.6665 15.7582 7.6665H17.4999C18.3249 7.6915 18.9582 8.34147 18.9582 9.14147V10.8582C18.9582 11.6582 18.3249 12.3081 17.5249 12.3331H15.8666ZM17.4749 8.9165H15.7666C15.4749 8.9165 15.2083 9.02483 15.0166 9.22483C14.7749 9.45817 14.6582 9.77481 14.6916 10.0915C14.7332 10.6415 15.2666 11.0831 15.8666 11.0831H17.4999C17.6082 11.0831 17.7082 10.9832 17.7082 10.8582V9.14147C17.7082 9.01647 17.6082 8.92484 17.4749 8.9165Z" fill="#AAAAAA"/>
<path d="M13.3334 17.7084H5.83335C2.96669 17.7084 1.04169 15.7834 1.04169 12.9167V7.08342C1.04169 4.51675 2.625 2.65842 5.08333 2.35009C5.30833 2.31675 5.56669 2.29175 5.83335 2.29175H13.3334C13.5334 2.29175 13.7917 2.30008 14.0584 2.34175C16.5167 2.62508 18.125 4.49175 18.125 7.08342V8.29176C18.125 8.63343 17.8417 8.91676 17.5 8.91676H15.7667C15.475 8.91676 15.2084 9.02509 15.0167 9.22509L15.0084 9.23343C14.775 9.45843 14.6667 9.76673 14.6917 10.0834C14.7334 10.6334 15.2667 11.0751 15.8667 11.0751H17.5C17.8417 11.0751 18.125 11.3584 18.125 11.7001V12.9084C18.125 15.7834 16.2 17.7084 13.3334 17.7084ZM5.83335 3.54175C5.63335 3.54175 5.44168 3.5584 5.25001 3.5834C3.41668 3.81674 2.29169 5.15008 2.29169 7.08342V12.9167C2.29169 15.0667 3.68335 16.4584 5.83335 16.4584H13.3334C15.4834 16.4584 16.875 15.0667 16.875 12.9167V12.3334H15.8667C14.6083 12.3334 13.5417 11.4001 13.4417 10.2001C13.375 9.51674 13.625 8.83343 14.125 8.3501C14.5584 7.90843 15.1417 7.66676 15.7667 7.66676H16.875V7.08342C16.875 5.13341 15.7333 3.79173 13.8833 3.57506C13.6833 3.54173 13.5084 3.54175 13.3334 3.54175H5.83335Z" fill="#AAAAAA"/>
</svg>
